<svg width="40" height="40" viewBox="0 0 40 40" fill="none" xmlns="http://www.w3.org/2000/svg">
<path d="M20.0001 10.3247C9.45633 10.3247 0.908203 14.6566 0.908203 20C0.908203 25.3434 9.45633 29.6753 20.0001 29.6753C30.5438 29.6753 39.092 25.3434 39.092 20C39.092 14.6566 30.5438 10.3247 20.0001 10.3247ZM15.0323 21.885C14.5766 22.3113 14.0707 22.4872 13.5135 22.6684C12.9563 22.85 12.2473 22.8125 11.3851 22.8125H9.43102L8.88945 25.9375H6.60789L8.64383 15.3125H13.0313C14.3513 15.3125 15.3141 15.6922 15.9195 16.385C16.5248 17.0778 16.7066 18.0613 16.4654 19.3028C16.3657 19.8144 16.1979 20.29 15.961 20.7138C15.7238 21.1378 15.4141 21.5338 15.0323 21.885ZM21.692 22.8125L22.5923 18.3063C22.6948 17.7788 22.6573 17.3869 22.4795 17.1953C22.3013 17.0034 21.9226 16.875 21.3435 16.875H19.5341L18.3682 22.8125H16.1045L18.1404 12.5H20.4041L19.8629 15.3125H21.8795C23.1485 15.3125 24.0235 15.5672 24.5051 16.0097C24.9866 16.4522 25.131 17.0584 24.9385 18.0497L23.9913 22.8125H21.692ZM34.2729 19.3194C34.1735 19.8309 34.0054 20.2984 33.7688 20.7219C33.532 21.1459 33.2226 21.5338 32.8404 21.885C32.3848 22.3113 31.8785 22.4872 31.3216 22.6684C30.7648 22.85 30.0551 22.8125 29.1929 22.8125H27.2388L26.6976 25.9375H24.416L26.4516 15.3125H30.8395C32.1595 15.3125 33.1223 15.6922 33.7273 16.385C34.332 17.0778 34.5141 18.0781 34.2729 19.3194ZM29.9748 16.875H28.412L27.5598 21.25H28.9479C29.8673 21.25 30.5529 21.1594 31.0029 20.8125C31.4535 20.4663 31.757 19.9288 31.9148 19.1184C32.066 18.34 31.9973 17.7328 31.7085 17.4128C31.4195 17.0928 30.8416 16.875 29.9748 16.875ZM12.167 16.875H10.6038L9.75164 21.25H11.1395C12.0591 21.25 12.7445 21.1594 13.1948 20.8125C13.6451 20.4663 13.9488 19.9288 14.1063 19.1184C14.2576 18.34 14.1888 17.7328 13.9001 17.4128C13.6113 17.0928 13.0338 16.875 12.167 16.875Z" fill="#2A59A7"/>
</svg>
